# xmcd
#
# Track frame offsets: 
#        150
#        26335
#        43956
#        62680
#        76272
#        91573
#        108616
#        123932
#        141611
#        155922
#        173534
#        179904
#        195474
#        210530
#        237403
#        256586
#        275662
#        306294
#
# Disc length: 4296 seconds
#
# Revision: 2
# Processed by: cddbd v1.5.2PL0 Copyright (c) Steve Scherf et al.
# Submitted via: ExactAudioCopy v0.95a5
#
DISCID=0010c612
DTITLE=P. Mobil - Mobilizmo
DYEAR=1981
DGENRE=Rock
TTITLE0=A Fõnix éjszakája
TTITLE1=Billy, a kölyök
TTITLE2=Szerettél már szamuráj?
TTITLE3=Varjúdal
TTITLE4=Örökmozgó
TTITLE5=Mobilizmo
TTITLE6=Rock 'n' Roll
TTITLE7=Átlagember
TTITLE8=Asszonyt akarok
TTITLE9=Oh yeah
TTITLE10=Alkohol blues
TTITLE11=Kétforintos dal
TTITLE12=Menj tovább
TTITLE13=A gálya
TTITLE14=Ha jössz hozzám, késõ/Mean Mistreater
TTITLE15=Tûzimádó/Pyrolater
TTITLE16=Pokolba tartó vonat/Hellbound Train
TTITLE17=Utolsó cigaretta/One More Drag
EXTD=
EXTT0=
EXTT1=
EXTT2=
EXTT3=
EXTT4=
EXTT5=
EXTT6=
EXTT7=
EXTT8=
EXTT9=
EXTT10=
EXTT11=
EXTT12=
EXTT13=
EXTT14=
EXTT15=
EXTT16=
EXTT17=
PLAYORDER=
